# xmcd
#
# Track frame offsets:
#	150
#	15260
#	29662
#	46711
#	65788
#	80246
#	95659
#	113360
#	130389
#	147764
#	165175
#	183311
#	201128
#	217425
#	235509
#
# Disc length: 3371 seconds
#
# Revision: 1
# Processed by: cddbd v1.5.1PL0 Copyright (c) Steve Scherf et al.
# Submitted via: audiograbber 1.83.01
#
DISCID=cc0d290f
DTITLE=variety - 1998 country gold
DYEAR=1900
DGENRE=
TTITLE0=faith hill - this kiss
TTITLE1=trisha yearwood - perfect love
TTITLE2=terri clark - now that i found you
TTITLE3=leann rimes - commitment
TTITLE4=lee ann womack - buckaroo
TTITLE5=jo dee messina - i'm alright
TTITLE6=dixie chicks - wide open spaces
TTITLE7=sara evans - no place that far
TTITLE8=kinleys, the - somebody's out there watching
TTITLE9=shania twain - that don't impress me much
TTITLE10=allison moorer - a soft place to fall
TTITLE11=chely wright - i already do
TTITLE12=martina mcbride - happy girl
TTITLE13=trisha yearwood - there goes my baby
TTITLE14=mila mason - the strong one
EXTD=
EXTT0=
EXTT1=
EXTT2=
EXTT3=
EXTT4=
EXTT5=
EXTT6=
EXTT7=
EXTT8=
EXTT9=
EXTT10=
EXTT11=
EXTT12=
EXTT13=
EXTT14=
PLAYORDER=
